<?xml version="1.0" encoding="iso-8859-1"?><!-- Generator: Adobe Illustrator 19.2.1, SVG Export Plug-In . SVG Version: 6.00 Build 0)  --><svg xmlns="http://www.w3.org/2000/svg" xmlns:xlink="http://www.w3.org/1999/xlink" version="1.1" id="Layer_1" x="0px" y="0px" viewBox="0 0 80 80" style="enable-background:new 0 0 80 80;" xml:space="preserve" width="80" height="80">
<g>
	<rect x="2.5" y="14.5" style="fill:#F2FAFF;" width="63" height="63"/>
	<g>
		<path style="fill:#788B9C;" d="M65,15v62H3V15H65 M66,14H2v64h64V14L66,14z"/>
	</g>
</g>
<polygon style="fill:#F2FAFF;" points="66,19.333 60.667,19.333 60.667,38 66,32.667 "/>
<polygon style="fill:#F2FAFF;" points="60.667,14 60.667,19.333 42,19.333 47.333,14 "/>
<g>
	<polygon style="fill:#F5CE85;" points="27.945,43.004 32.92,38.029 42.622,46.478 37.041,52.059 22.832,57.169  "/>
	<path style="fill:#967A44;" d="M32.944,38.712l8.945,7.791l-5.123,5.123l-13.103,4.713l4.715-13.061L32.944,38.712 M32.897,37.345   l-5.384,5.384L22,58l15.315-5.509l6.039-6.039L32.897,37.345L32.897,37.345z"/>
</g>
<g>
	<polygon style="fill:#36404D;" points="22,58 31.015,54.758 25.248,49.002  "/>
</g>
<g>
	<path style="fill:#F78F8F;" d="M62.23,8.695l4.315-4.315C67.757,3.167,69.369,2.5,71.083,2.5s3.326,0.667,4.538,1.879   c2.502,2.502,2.502,6.573,0,9.075l-4.315,4.315L62.23,8.695z"/>
	<g>
		<path style="fill:#C74343;" d="M71.083,3c1.581,0,3.066,0.615,4.184,1.733c2.307,2.307,2.307,6.061,0,8.368l-3.962,3.962    l-8.368-8.368l3.962-3.962C68.017,3.615,69.502,3,71.083,3 M71.083,2c-1.77,0-3.54,0.675-4.891,2.026l-4.669,4.669l9.782,9.782    l4.669-4.669c2.701-2.701,2.701-7.081,0-9.782h0C74.623,2.675,72.853,2,71.083,2L71.083,2z"/>
	</g>
</g>
<g>
	<path style="fill:#FFEEA3;" d="M37.754,51.344c-0.091-0.421-0.274-0.891-0.629-1.307c-0.545-0.639-1.355-1.003-2.414-1.085   c-0.231-2.45-2.217-3.365-3.59-3.562c-0.172-1.875-1.404-2.721-2.539-3.022l31.461-31.485l9.075,9.075L37.754,51.344z"/>
	<g>
		<path style="fill:#BA9B48;" d="M60.043,11.589l8.368,8.368L37.968,50.423c-0.116-0.241-0.267-0.482-0.462-0.71    c-0.561-0.658-1.349-1.065-2.35-1.214c-0.388-2.249-2.166-3.225-3.585-3.535c-0.248-1.489-1.123-2.346-2.08-2.799L60.043,11.589     M60.043,10.175l-32.53,32.555c0,0,0.013,0,0.038,0c0.356,0,3.09,0.098,3.09,3.119c0,0,3.592,0.111,3.592,3.586    c3.572,0,3.082,3.058,3.082,3.058l32.51-32.535L60.043,10.175L60.043,10.175z"/>
	</g>
</g>
<g>
	
		<rect x="62.798" y="6.602" transform="matrix(0.7071 -0.7071 0.7071 0.7071 10.4122 51.1758)" style="fill:#D9E7F5;" width="8.366" height="12.834"/>
	<g>
		<path style="fill:#788B9C;" d="M65.401,6.231l8.368,8.368l-5.208,5.208l-8.368-8.368L65.401,6.231 M65.401,4.817l-6.622,6.622    l9.782,9.782l6.622-6.622L65.401,4.817L65.401,4.817z"/>
	</g>
</g>
</svg>